<?xml version="1.0" encoding="utf-8"?>
<!-- Generator: Adobe Illustrator 25.0.1, SVG Export Plug-In . SVG Version: 6.00 Build 0)  -->
<svg version="1.1" id="Livello_1" xmlns="http://www.w3.org/2000/svg" xmlns:xlink="http://www.w3.org/1999/xlink" x="0px" y="0px"
	 viewBox="0 0 343.89 96" style="enable-background:new 0 0 343.89 96;" xml:space="preserve">
<style type="text/css">
	.st0{enable-background:new    ;}
	.st1{fill:#EDF3EC;}
</style>
<g>
	<g class="st0">
		<path class="st1" d="M1.81,78.77H7.3c1.57,0,2.83,0.47,3.63,1.28c0.62,0.62,0.99,1.51,0.99,2.52v0.04c0,2.12-1.46,3.36-3.47,3.72
			l3.92,5.22H10.6l-3.7-4.96H3.25v4.96H1.81V78.77z M7.17,85.28c1.92,0,3.29-0.99,3.29-2.63v-0.04c0-1.57-1.2-2.52-3.27-2.52H3.25
			v5.18H7.17z"/>
		<path class="st1" d="M14.8,78.49h1.61v1.55H14.8V78.49z M14.89,82.11h1.41v9.43h-1.41V82.11z"/>
		<path class="st1" d="M18.78,90.34l0.71-1c1.02,0.77,2.15,1.2,3.27,1.2c1.13,0,1.95-0.58,1.95-1.5V89c0-0.95-1.11-1.31-2.35-1.66
			c-1.48-0.42-3.12-0.93-3.12-2.66v-0.04c0-1.62,1.35-2.7,3.21-2.7c1.15,0,2.43,0.4,3.39,1.04l-0.64,1.06
			c-0.88-0.57-1.88-0.91-2.79-0.91c-1.11,0-1.83,0.58-1.83,1.37v0.04c0,0.89,1.17,1.24,2.43,1.62c1.46,0.44,3.03,1,3.03,2.7v0.04
			c0,1.79-1.48,2.83-3.36,2.83C21.34,91.72,19.84,91.19,18.78,90.34z"/>
		<path class="st1" d="M28.66,82.11h1.41V84c0.77-1.13,1.88-2.1,3.61-2.1c2.26,0,4.51,1.79,4.51,4.89v0.04
			c0,3.08-2.23,4.91-4.51,4.91c-1.75,0-2.88-0.95-3.61-2.01v4.73h-1.41V82.11z M36.74,86.85v-0.04c0-2.23-1.53-3.65-3.32-3.65
			c-1.75,0-3.41,1.48-3.41,3.63v0.04c0,2.19,1.66,3.65,3.41,3.65C35.24,90.48,36.74,89.13,36.74,86.85z"/>
		<path class="st1" d="M40.06,88.8v-0.04c0-1.99,1.64-3.05,4.03-3.05c1.2,0,2.06,0.16,2.9,0.4v-0.33c0-1.7-1.04-2.57-2.81-2.57
			c-1.11,0-1.99,0.29-2.86,0.69l-0.42-1.15c1.04-0.47,2.06-0.78,3.43-0.78c1.33,0,2.35,0.35,3.05,1.04
			c0.64,0.64,0.97,1.55,0.97,2.76v5.77H47v-1.42c-0.66,0.86-1.75,1.62-3.41,1.62C41.83,91.74,40.06,90.74,40.06,88.8z M47.02,88.07
			v-0.91c-0.69-0.2-1.62-0.4-2.77-0.4c-1.77,0-2.76,0.77-2.76,1.95v0.04c0,1.19,1.09,1.88,2.37,1.88
			C45.59,90.63,47.02,89.57,47.02,88.07z"/>
	</g>
	<g class="st0">
		<path class="st1" d="M50.52,82.11h1.41v2.46c0.69-1.57,2.06-2.7,3.85-2.63v1.51h-0.11c-2.06,0-3.74,1.48-3.74,4.33v3.76h-1.41
			V82.11z"/>
	</g>
	<g class="st0">
		<path class="st1" d="M57.73,82.11h1.41v1.59c0.62-0.93,1.46-1.79,3.05-1.79c1.53,0,2.52,0.82,3.03,1.88
			c0.68-1.04,1.68-1.88,3.32-1.88c2.17,0,3.5,1.46,3.5,3.8v5.84h-1.41v-5.51c0-1.82-0.91-2.85-2.45-2.85
			c-1.42,0-2.59,1.06-2.59,2.92v5.44h-1.41v-5.55c0-1.77-0.93-2.81-2.43-2.81s-2.63,1.24-2.63,2.97v5.38h-1.41V82.11z"/>
		<path class="st1" d="M75.12,78.49h1.61v1.55h-1.61V78.49z M75.22,82.11h1.41v9.43h-1.41V82.11z"/>
	</g>
	<g class="st0">
	</g>
	<g class="st0">
		<path class="st1" d="M84,90.34l0.71-1c1.02,0.77,2.15,1.2,3.27,1.2c1.13,0,1.95-0.58,1.95-1.5V89c0-0.95-1.11-1.31-2.35-1.66
			c-1.48-0.42-3.12-0.93-3.12-2.66v-0.04c0-1.62,1.35-2.7,3.21-2.7c1.15,0,2.43,0.4,3.39,1.04l-0.64,1.06
			c-0.88-0.57-1.88-0.91-2.79-0.91c-1.11,0-1.83,0.58-1.83,1.37v0.04c0,0.89,1.17,1.24,2.43,1.62c1.46,0.44,3.03,1,3.03,2.7v0.04
			c0,1.79-1.48,2.83-3.36,2.83C86.55,91.72,85.05,91.19,84,90.34z"/>
	</g>
	<g class="st0">
		<path class="st1" d="M93.56,87.96v-5.86h1.41v5.51c0,1.75,0.95,2.85,2.61,2.85c1.61,0,2.83-1.19,2.83-2.96v-5.4h1.39v9.43h-1.39
			V89.9c-0.64,1.02-1.61,1.84-3.23,1.84C94.9,91.74,93.56,90.21,93.56,87.96z"/>
	</g>
	<g class="st0">
		<path class="st1" d="M104.81,78.49h1.61v1.55h-1.61V78.49z M104.9,82.11h1.41v9.43h-1.41V82.11z"/>
	</g>
	<g class="st0">
	</g>
	<g class="st0">
		<path class="st1" d="M114.04,86.87v-0.04c0-2.67,2.08-4.93,4.84-4.93c1.79,0,2.9,0.75,3.78,1.68l-0.93,0.99
			c-0.75-0.78-1.59-1.42-2.87-1.42c-1.92,0-3.38,1.62-3.38,3.65v0.04c0,2.04,1.5,3.67,3.47,3.67c1.2,0,2.14-0.6,2.88-1.41l0.89,0.84
			c-0.95,1.06-2.08,1.82-3.85,1.82C116.12,91.76,114.04,89.52,114.04,86.87z"/>
	</g>
	<g class="st0">
		<path class="st1" d="M124.01,86.87v-0.04c0-2.67,2.08-4.93,4.93-4.93c2.83,0,4.91,2.23,4.91,4.89v0.04c0,2.66-2.1,4.93-4.95,4.93
			C126.07,91.76,124.01,89.53,124.01,86.87z M132.4,86.87v-0.04c0-2.03-1.51-3.69-3.5-3.69c-2.04,0-3.45,1.66-3.45,3.65v0.04
			c0,2.03,1.5,3.67,3.49,3.67C130.98,90.5,132.4,88.86,132.4,86.87z"/>
	</g>
	<g class="st0">
		<path class="st1" d="M136.2,82.11h1.41v1.64c0.62-1.02,1.61-1.84,3.23-1.84c2.28,0,3.61,1.53,3.61,3.78v5.86h-1.41v-5.51
			c0-1.75-0.95-2.85-2.61-2.85c-1.62,0-2.83,1.19-2.83,2.96v5.4h-1.41V82.11z"/>
		<path class="st1" d="M146.66,90.34l0.71-1c1.02,0.77,2.15,1.2,3.27,1.2c1.13,0,1.95-0.58,1.95-1.5V89c0-0.95-1.11-1.31-2.35-1.66
			c-1.48-0.42-3.12-0.93-3.12-2.66v-0.04c0-1.62,1.35-2.7,3.21-2.7c1.15,0,2.43,0.4,3.39,1.04l-0.64,1.06
			c-0.88-0.57-1.88-0.91-2.79-0.91c-1.11,0-1.83,0.58-1.83,1.37v0.04c0,0.89,1.17,1.24,2.43,1.62c1.46,0.44,3.03,1,3.03,2.7v0.04
			c0,1.79-1.48,2.83-3.36,2.83C149.21,91.72,147.72,91.19,146.66,90.34z"/>
		<path class="st1" d="M156.39,87.96v-5.86h1.41v5.51c0,1.75,0.95,2.85,2.61,2.85c1.61,0,2.83-1.19,2.83-2.96v-5.4h1.39v9.43h-1.39
			V89.9c-0.64,1.02-1.61,1.84-3.23,1.84C157.72,91.74,156.39,90.21,156.39,87.96z"/>
		<path class="st1" d="M167.78,82.11h1.41v1.59c0.62-0.93,1.46-1.79,3.05-1.79c1.53,0,2.52,0.82,3.03,1.88
			c0.67-1.04,1.68-1.88,3.32-1.88c2.17,0,3.5,1.46,3.5,3.8v5.84h-1.41v-5.51c0-1.82-0.91-2.85-2.45-2.85
			c-1.42,0-2.59,1.06-2.59,2.92v5.44h-1.41v-5.55c0-1.77-0.93-2.81-2.43-2.81c-1.5,0-2.63,1.24-2.63,2.97v5.38h-1.41V82.11z"/>
		<path class="st1" d="M185.17,78.49h1.61v1.55h-1.61V78.49z M185.26,82.11h1.41v9.43h-1.41V82.11z"/>
	</g>
	<g class="st0">
		<path class="st1" d="M188.38,93.13c0.91-0.33,1.3-0.8,1.22-1.59h-0.66v-1.92h1.68v1.64c0,1.48-0.64,2.19-2.03,2.5L188.38,93.13z"
			/>
	</g>
	<g class="st0">
	</g>
	<g class="st0">
		<path class="st1" d="M198.66,78.49h1.61v1.55h-1.61V78.49z M198.75,82.11h1.41v9.43h-1.41V82.11z"/>
	</g>
	<g class="st0">
		<path class="st1" d="M203.26,82.11h1.41v1.64c0.62-1.02,1.61-1.84,3.23-1.84c2.28,0,3.61,1.53,3.61,3.78v5.86h-1.41v-5.51
			c0-1.75-0.95-2.85-2.61-2.85c-1.62,0-2.83,1.19-2.83,2.96v5.4h-1.41V82.11z"/>
	</g>
	<g class="st0">
		<path class="st1" d="M213.04,82.11h1.55l3.18,7.83l3.19-7.83h1.51l-4.11,9.51h-1.24L213.04,82.11z"/>
	</g>
	<g class="st0">
		<path class="st1" d="M223.39,86.85v-0.04c0-2.72,1.92-4.91,4.53-4.91c2.79,0,4.4,2.23,4.4,4.98c0,0.18,0,0.29-0.02,0.46h-7.48
			c0.2,2.04,1.64,3.19,3.32,3.19c1.29,0,2.21-0.53,2.97-1.33l0.88,0.79c-0.95,1.06-2.1,1.77-3.89,1.77
			C225.5,91.76,223.39,89.77,223.39,86.85z M230.89,86.3c-0.15-1.72-1.13-3.21-3.01-3.21c-1.64,0-2.88,1.37-3.07,3.21H230.89z"/>
	</g>
	<g class="st0">
		<path class="st1" d="M233.83,90.34l0.71-1c1.02,0.77,2.15,1.2,3.27,1.2c1.13,0,1.95-0.58,1.95-1.5V89c0-0.95-1.11-1.31-2.35-1.66
			c-1.48-0.42-3.12-0.93-3.12-2.66v-0.04c0-1.62,1.35-2.7,3.21-2.7c1.15,0,2.43,0.4,3.39,1.04l-0.64,1.06
			c-0.88-0.57-1.88-0.91-2.79-0.91c-1.11,0-1.83,0.58-1.83,1.37v0.04c0,0.89,1.17,1.24,2.43,1.62c1.46,0.44,3.03,1,3.03,2.7v0.04
			c0,1.79-1.48,2.83-3.36,2.83C236.38,91.72,234.88,91.19,233.83,90.34z"/>
	</g>
	<g class="st0">
		<path class="st1" d="M243.85,89.04v-5.69h-1.31v-1.24h1.31v-2.85h1.41v2.85h2.99v1.24h-2.99v5.51c0,1.15,0.64,1.57,1.59,1.57
			c0.47,0,0.88-0.09,1.37-0.33v1.2c-0.49,0.26-1.02,0.4-1.7,0.4C245,91.71,243.85,90.96,243.85,89.04z"/>
		<path class="st1" d="M250.77,78.49h1.61v1.55h-1.61V78.49z M250.86,82.11h1.41v9.43h-1.41V82.11z"/>
	</g>
	<g class="st0">
	</g>
	<g class="st0">
		<path class="st1" d="M259.63,90.34l0.71-1c1.02,0.77,2.15,1.2,3.27,1.2c1.13,0,1.95-0.58,1.95-1.5V89c0-0.95-1.11-1.31-2.35-1.66
			c-1.48-0.42-3.12-0.93-3.12-2.66v-0.04c0-1.62,1.35-2.7,3.21-2.7c1.15,0,2.43,0.4,3.39,1.04l-0.64,1.06
			c-0.88-0.57-1.88-0.91-2.79-0.91c-1.11,0-1.83,0.58-1.83,1.37v0.04c0,0.89,1.17,1.24,2.43,1.62c1.46,0.44,3.03,1,3.03,2.7v0.04
			c0,1.79-1.48,2.83-3.36,2.83C262.19,91.72,260.69,91.19,259.63,90.34z"/>
	</g>
	<g class="st0">
		<path class="st1" d="M269.2,87.96v-5.86h1.41v5.51c0,1.75,0.95,2.85,2.61,2.85c1.61,0,2.83-1.19,2.83-2.96v-5.4h1.39v9.43h-1.39
			V89.9c-0.64,1.02-1.61,1.84-3.23,1.84C270.54,91.74,269.2,90.21,269.2,87.96z"/>
	</g>
	<g class="st0">
		<path class="st1" d="M280.54,78.22h1.41v13.32h-1.41V78.22z"/>
		<path class="st1" d="M285.34,78.22h1.41v13.32h-1.41V78.22z"/>
		<path class="st1" d="M289.3,88.8v-0.04c0-1.99,1.64-3.05,4.03-3.05c1.21,0,2.06,0.16,2.9,0.4v-0.33c0-1.7-1.04-2.57-2.81-2.57
			c-1.11,0-1.99,0.29-2.87,0.69l-0.42-1.15c1.04-0.47,2.06-0.78,3.43-0.78c1.33,0,2.35,0.35,3.05,1.04
			c0.64,0.64,0.97,1.55,0.97,2.76v5.77h-1.35v-1.42c-0.66,0.86-1.75,1.62-3.41,1.62C291.07,91.74,289.3,90.74,289.3,88.8z
			 M296.25,88.07v-0.91c-0.69-0.2-1.62-0.4-2.77-0.4c-1.77,0-2.76,0.77-2.76,1.95v0.04c0,1.19,1.09,1.88,2.37,1.88
			C294.83,90.63,296.25,89.57,296.25,88.07z"/>
	</g>
	<g class="st0">
	</g>
	<g class="st0">
		<path class="st1" d="M304.73,86.87v-0.04c0-2.67,2.08-4.93,4.84-4.93c1.79,0,2.9,0.75,3.78,1.68l-0.93,0.99
			c-0.75-0.78-1.59-1.42-2.87-1.42c-1.92,0-3.38,1.62-3.38,3.65v0.04c0,2.04,1.5,3.67,3.47,3.67c1.2,0,2.13-0.6,2.88-1.41l0.89,0.84
			c-0.95,1.06-2.08,1.82-3.85,1.82C306.81,91.76,304.73,89.52,304.73,86.87z"/>
		<path class="st1" d="M315.02,88.8v-0.04c0-1.99,1.64-3.05,4.03-3.05c1.2,0,2.06,0.16,2.9,0.4v-0.33c0-1.7-1.04-2.57-2.81-2.57
			c-1.11,0-1.99,0.29-2.87,0.69l-0.42-1.15c1.04-0.47,2.06-0.78,3.43-0.78c1.33,0,2.35,0.35,3.05,1.04
			c0.64,0.64,0.97,1.55,0.97,2.76v5.77h-1.35v-1.42c-0.66,0.86-1.75,1.62-3.41,1.62C316.79,91.74,315.02,90.74,315.02,88.8z
			 M321.97,88.07v-0.91c-0.69-0.2-1.62-0.4-2.77-0.4c-1.77,0-2.76,0.77-2.76,1.95v0.04c0,1.19,1.09,1.88,2.37,1.88
			C320.55,90.63,321.97,89.57,321.97,88.07z"/>
		<path class="st1" d="M325.51,90.34l0.71-1c1.02,0.77,2.15,1.2,3.27,1.2c1.13,0,1.95-0.58,1.95-1.5V89c0-0.95-1.11-1.31-2.35-1.66
			c-1.48-0.42-3.12-0.93-3.12-2.66v-0.04c0-1.62,1.35-2.7,3.21-2.7c1.15,0,2.43,0.4,3.39,1.04l-0.64,1.06
			c-0.88-0.57-1.88-0.91-2.79-0.91c-1.11,0-1.83,0.58-1.83,1.37v0.04c0,0.89,1.17,1.24,2.43,1.62c1.46,0.44,3.03,1,3.03,2.7v0.04
			c0,1.79-1.48,2.83-3.36,2.83C328.07,91.72,326.57,91.19,325.51,90.34z"/>
	</g>
	<g class="st0">
		<path class="st1" d="M334.18,88.8v-0.04c0-1.99,1.64-3.05,4.03-3.05c1.2,0,2.06,0.16,2.9,0.4v-0.33c0-1.7-1.04-2.57-2.81-2.57
			c-1.11,0-1.99,0.29-2.86,0.69l-0.42-1.15c1.04-0.47,2.06-0.78,3.43-0.78c1.33,0,2.35,0.35,3.05,1.04
			c0.64,0.64,0.97,1.55,0.97,2.76v5.77h-1.35v-1.42c-0.66,0.86-1.75,1.62-3.41,1.62C335.95,91.74,334.18,90.74,334.18,88.8z
			 M341.13,88.07v-0.91c-0.69-0.2-1.62-0.4-2.77-0.4c-1.77,0-2.76,0.77-2.76,1.95v0.04c0,1.19,1.09,1.88,2.37,1.88
			C339.71,90.63,341.13,89.57,341.13,88.07z"/>
	</g>
	<g>
		<path class="st1" d="M117.39,49.09H94.11V38.57h20.33c0.24,0,0.43-0.19,0.43-0.43V31.9c0-0.24-0.19-0.43-0.43-0.43H94.11V21.29
			h22.99c0.24,0,0.43-0.19,0.43-0.43v-6.23c0-0.24-0.19-0.44-0.43-0.44H86.68c-0.24,0-0.43,0.2-0.43,0.44v41.13
			c0,0.24,0.2,0.43,0.43,0.43h30.72c0.24,0,0.43-0.19,0.43-0.43v-6.23C117.83,49.29,117.63,49.09,117.39,49.09"/>
	</g>
	<g>
		<path class="st1" d="M173.94,12.07h-6.88c-0.24,0-0.43,0.19-0.43,0.43v5.76c0,0.24,0.2,0.43,0.43,0.43h6.88
			c0.24,0,0.43-0.19,0.43-0.43V12.5C174.37,12.26,174.18,12.07,173.94,12.07"/>
	</g>
	<g>
		<path class="st1" d="M173.94,24.37h-6.88c-0.24,0-0.43,0.19-0.43,0.43v30.95c0,0.24,0.2,0.43,0.43,0.43h6.88
			c0.24,0,0.43-0.19,0.43-0.43V24.8C174.37,24.56,174.18,24.37,173.94,24.37"/>
	</g>
	<g>
		<path class="st1" d="M161.1,12.07h-5.66c-3.15,0-5.52,0.84-7.25,2.57c-1.74,1.75-2.63,4.4-2.63,7.9v1.84h-3.53
			c-0.24,0-0.43,0.19-0.43,0.43v5.52c0,0.24,0.19,0.43,0.43,0.43h3.53v25c0,0.24,0.19,0.43,0.43,0.43h6.88
			c0.24,0,0.43-0.19,0.43-0.43v-25h7.73c0.24,0,0.43-0.19,0.43-0.43V24.8c0-0.24-0.2-0.43-0.43-0.43h-7.85v-1.18
			c0-3.03,1.22-4.44,3.85-4.44c1.51,0,2.71,0,4.07-0.05c0.23-0.01,0.43-0.2,0.43-0.44V12.5C161.54,12.26,161.34,12.07,161.1,12.07"
			/>
	</g>
	<g>
		<path class="st1" d="M138.86,12.07h-5.66c-3.15,0-5.52,0.84-7.25,2.57c-1.74,1.75-2.63,4.4-2.63,7.9v1.84h-3.53
			c-0.24,0-0.43,0.19-0.43,0.43v5.52c0,0.24,0.19,0.43,0.43,0.43h3.53v25c0,0.24,0.2,0.43,0.43,0.43h6.88
			c0.24,0,0.43-0.19,0.43-0.43v-25h7.73c0.24,0,0.43-0.19,0.43-0.43V24.8c0-0.24-0.2-0.43-0.43-0.43h-7.85v-1.18
			c0-3.03,1.22-4.44,3.84-4.44c1.51,0,2.71,0,4.07-0.05c0.23-0.01,0.42-0.2,0.42-0.44V12.5C139.29,12.26,139.1,12.07,138.86,12.07"
			/>
	</g>
	<g>
		<path class="st1" d="M203.3,46.37c-0.17-0.17-0.44-0.16-0.61,0.01c-2.5,2.53-4.9,3.66-7.79,3.66c-5.16,0-9.05-4.17-9.05-9.7v-0.12
			c0-5.41,3.85-9.64,8.75-9.64c3.67,0,5.88,1.78,7.73,3.71c0.08,0.08,0.2,0.13,0.31,0.13l0,0c0.12,0,0.23-0.05,0.31-0.14l4.31-4.59
			c0.15-0.17,0.16-0.43,0-0.6c-3.49-3.72-7.37-5.38-12.61-5.38c-9.29,0-16.56,7.3-16.56,16.62v0.12c0,9.22,7.22,16.44,16.44,16.44
			c6.71,0,10.29-2.96,12.91-5.85c0.15-0.18,0.15-0.44-0.02-0.6L203.3,46.37z"/>
	</g>
	<g>
		<path class="st1" d="M215.4,37.8c0.74-4.64,3.77-7.63,7.76-7.63c4.1,0,7,2.92,7.6,7.63H215.4z M226.39,24
			c-4.49-0.83-9.12,0.4-12.72,3.39c-3.81,3.17-6,7.83-6,12.78v0.22c0,9.56,6.86,16.5,16.32,16.5c5.28,0,9.63-1.97,12.92-5.85
			c0.15-0.18,0.13-0.46-0.05-0.61l-4-3.55c-0.17-0.15-0.43-0.14-0.59,0.01c-2.58,2.49-5.03,3.55-8.16,3.55
			c-4.53,0-7.82-2.81-8.64-7.34h22.88l0.04-0.43c0.06-0.65,0.11-1.26,0.11-1.88C238.48,31.96,233.73,25.36,226.39,24"/>
	</g>
	<g>
		<path class="st1" d="M259,23.72c-3.86,0-6.96,1.58-9.46,4.83V24.8c0-0.24-0.2-0.43-0.44-0.43h-6.88c-0.24,0-0.43,0.2-0.43,0.43
			v30.95c0,0.24,0.19,0.43,0.43,0.43h6.88c0.24,0,0.44-0.2,0.44-0.43V38.27c0-4.53,2.65-7.45,6.74-7.45c4.06,0,6.39,2.67,6.39,7.34
			v17.61c0,0.24,0.19,0.43,0.43,0.43h6.88c0.24,0,0.43-0.2,0.43-0.43V35.96C270.42,28.41,266.05,23.72,259,23.72"/>
	</g>
	<g>
		<path class="st1" d="M292.34,24.37h-7.96v-8.14c0-0.24-0.2-0.43-0.43-0.43h-6.88c-0.24,0-0.43,0.19-0.43,0.43v8.14h-3.53
			c-0.24,0-0.43,0.19-0.43,0.43v5.87c0,0.24,0.2,0.43,0.43,0.43h3.53v16.15c0,6.28,3.12,9.46,9.29,9.46h6.31
			c0.24,0,0.43-0.2,0.43-0.43v-6.11c0-0.24-0.19-0.43-0.43-0.43h-4.3c-2.42,0-3.55-1.15-3.55-3.61V31.11h7.96
			c0.24,0,0.43-0.2,0.43-0.43V24.8C292.77,24.56,292.58,24.37,292.34,24.37"/>
	</g>
	<g>
		<path class="st1" d="M314.95,31.94v-7.73c0-0.24-0.19-0.43-0.43-0.44c-4.72-0.16-8.36,2.12-10.63,6.59V24.8
			c0-0.24-0.2-0.43-0.43-0.43h-6.88c-0.24,0-0.43,0.19-0.43,0.43v30.95c0,0.24,0.19,0.43,0.43,0.43h6.88c0.24,0,0.43-0.19,0.43-0.43
			V44.01c0-7.67,3.77-12.07,10.35-12.07C314.24,31.94,314.95,31.94,314.95,31.94z"/>
	</g>
	<g>
		<path class="st1" d="M335.13,44.66c0,3.7-3.38,6.39-8.04,6.39c-3.52,0-5.8-1.74-5.8-4.44v-0.12c0-3.07,2.63-4.91,7.04-4.91
			c3.05,0,5.37,0.62,6.8,1.15V44.66z M339.06,27.53c-2.28-2.34-5.93-3.58-10.56-3.58h-9.11c-0.24,0-0.43,0.2-0.43,0.43v5.93
			c0,0.24,0.19,0.43,0.43,0.43h8.17c4.87,0,7.45,2.25,7.45,6.51v0.37c-1.99-0.61-4.51-1.19-8.1-1.19c-8.26,0-13.19,3.87-13.19,10.35
			v0.12c0,6.83,5.89,9.94,11.35,9.94c4.03,0,7.35-1.37,9.88-4.07v2.98c0,0.24,0.2,0.43,0.43,0.43h6.7c0.24,0,0.43-0.2,0.43-0.43
			V37.38C342.52,33.08,341.36,29.77,339.06,27.53"/>
	</g>
	<g>
		<path class="st1" d="M57.94,55.71c0,0.27-0.21,0.48-0.48,0.48H16.25c-0.27,0-0.48-0.21-0.48-0.48V25.58
			c0-0.15,0.07-0.28,0.18-0.37l20.6-16.5c0.18-0.14,0.42-0.14,0.6,0L57.76,25.2c0.11,0.09,0.18,0.23,0.18,0.37V55.71z M71.55,0H2.16
			c-0.27,0-0.5,0.22-0.5,0.49v69.4c0,0.27,0.22,0.5,0.5,0.5h69.4c0.27,0,0.49-0.22,0.49-0.5V0.49C72.05,0.22,71.83,0,71.55,0"/>
	</g>
	<g>
		<polygon class="st1" points="52.2,26.68 51.26,25.92 50.39,26.75 34.28,42.18 26.88,33.49 26.01,32.48 24.98,33.31 20.26,37.09 
			19.01,38.09 20.2,39.17 33.06,50.84 34.08,51.76 35,50.73 53.74,29.77 54.7,28.69 53.58,27.79 		"/>
	</g>
</g>
</svg>
