<?xml version="1.0" encoding="utf-8"?>
<!-- Generator: Adobe Illustrator 25.0.1, SVG Export Plug-In . SVG Version: 6.00 Build 0)  -->
<svg version="1.1" id="Livello_1" xmlns="http://www.w3.org/2000/svg" xmlns:xlink="http://www.w3.org/1999/xlink" x="0px" y="0px"
	 viewBox="0 0 340.86 70.39" style="enable-background:new 0 0 340.86 70.39;" xml:space="preserve">
<style type="text/css">
	.st0{fill:#EDF3EC;}
	.st1{fill:#285468;}
	.st2{fill:#679C40;}
</style>
<g>
	<path class="st0" d="M115.73,49.09H92.45V38.57h20.33c0.24,0,0.43-0.19,0.43-0.43V31.9c0-0.24-0.19-0.43-0.43-0.43H92.45V21.29
		h22.99c0.24,0,0.43-0.19,0.43-0.43v-6.23c0-0.24-0.19-0.44-0.43-0.44H85.02c-0.24,0-0.43,0.2-0.43,0.44v41.13
		c0,0.24,0.2,0.43,0.43,0.43h30.72c0.24,0,0.43-0.19,0.43-0.43v-6.23C116.17,49.29,115.97,49.09,115.73,49.09"/>
	<path class="st0" d="M172.28,12.07h-6.88c-0.24,0-0.43,0.19-0.43,0.43v5.76c0,0.24,0.2,0.43,0.43,0.43h6.88
		c0.24,0,0.43-0.19,0.43-0.43V12.5C172.71,12.26,172.52,12.07,172.28,12.07"/>
	<path class="st0" d="M172.28,24.37h-6.88c-0.24,0-0.43,0.19-0.43,0.43v30.95c0,0.24,0.2,0.43,0.43,0.43h6.88
		c0.24,0,0.43-0.19,0.43-0.43V24.8C172.71,24.56,172.52,24.37,172.28,24.37"/>
	<path class="st0" d="M159.44,12.07h-5.66c-3.15,0-5.52,0.84-7.25,2.57c-1.74,1.75-2.63,4.4-2.63,7.9v1.84h-3.53
		c-0.24,0-0.43,0.19-0.43,0.43v5.52c0,0.24,0.19,0.43,0.43,0.43h3.53v25c0,0.24,0.19,0.43,0.43,0.43h6.88
		c0.24,0,0.43-0.19,0.43-0.43v-25h7.73c0.24,0,0.43-0.19,0.43-0.43V24.8c0-0.24-0.2-0.43-0.43-0.43h-7.85v-1.18
		c0-3.03,1.22-4.44,3.85-4.44c1.51,0,2.71,0,4.07-0.05c0.23-0.01,0.43-0.2,0.43-0.44V12.5C159.88,12.26,159.68,12.07,159.44,12.07"
		/>
	<path class="st0" d="M137.2,12.07h-5.66c-3.15,0-5.52,0.84-7.25,2.57c-1.74,1.75-2.63,4.4-2.63,7.9v1.84h-3.53
		c-0.24,0-0.43,0.19-0.43,0.43v5.52c0,0.24,0.19,0.43,0.43,0.43h3.53v25c0,0.24,0.2,0.43,0.43,0.43h6.88c0.24,0,0.43-0.19,0.43-0.43
		v-25h7.73c0.24,0,0.43-0.19,0.43-0.43V24.8c0-0.24-0.2-0.43-0.43-0.43h-7.85v-1.18c0-3.03,1.22-4.44,3.84-4.44
		c1.51,0,2.71,0,4.07-0.05c0.23-0.01,0.42-0.2,0.42-0.44V12.5C137.64,12.26,137.44,12.07,137.2,12.07"/>
	<path class="st0" d="M201.64,46.37c-0.17-0.17-0.44-0.16-0.61,0.01c-2.5,2.53-4.9,3.66-7.79,3.66c-5.16,0-9.05-4.17-9.05-9.7v-0.12
		c0-5.41,3.85-9.64,8.75-9.64c3.67,0,5.88,1.78,7.73,3.71c0.08,0.08,0.2,0.13,0.31,0.13h0c0.12,0,0.23-0.05,0.31-0.14l4.31-4.59
		c0.15-0.17,0.16-0.43,0-0.6c-3.49-3.72-7.37-5.38-12.61-5.38c-9.29,0-16.56,7.3-16.56,16.62v0.12c0,9.22,7.22,16.44,16.44,16.44
		c6.71,0,10.29-2.96,12.91-5.85c0.15-0.18,0.15-0.44-0.02-0.6L201.64,46.37z"/>
	<path class="st0" d="M213.74,37.8c0.74-4.64,3.77-7.63,7.76-7.63c4.1,0,7,2.92,7.6,7.63H213.74z M224.73,24
		c-4.49-0.83-9.12,0.4-12.72,3.39c-3.81,3.17-6,7.83-6,12.78v0.22c0,9.56,6.86,16.5,16.32,16.5c5.28,0,9.63-1.97,12.92-5.85
		c0.15-0.18,0.13-0.46-0.05-0.61l-4-3.55c-0.17-0.15-0.43-0.14-0.59,0.01c-2.58,2.49-5.03,3.55-8.16,3.55
		c-4.53,0-7.82-2.81-8.64-7.34h22.88l0.04-0.43c0.06-0.65,0.11-1.26,0.11-1.88C236.82,31.96,232.07,25.36,224.73,24"/>
	<path class="st0" d="M257.34,23.72c-3.86,0-6.96,1.58-9.46,4.83V24.8c0-0.24-0.2-0.43-0.44-0.43h-6.88c-0.24,0-0.43,0.2-0.43,0.43
		v30.95c0,0.24,0.19,0.43,0.43,0.43h6.88c0.24,0,0.44-0.2,0.44-0.43V38.27c0-4.53,2.65-7.45,6.74-7.45c4.06,0,6.39,2.67,6.39,7.34
		v17.61c0,0.24,0.19,0.43,0.43,0.43h6.88c0.24,0,0.43-0.2,0.43-0.43V35.96C268.76,28.41,264.39,23.72,257.34,23.72"/>
	<path class="st0" d="M290.68,24.37h-7.96v-8.14c0-0.24-0.2-0.43-0.43-0.43h-6.88c-0.24,0-0.43,0.19-0.43,0.43v8.14h-3.53
		c-0.24,0-0.43,0.19-0.43,0.43v5.87c0,0.24,0.2,0.43,0.43,0.43h3.53v16.15c0,6.28,3.12,9.46,9.29,9.46h6.31
		c0.24,0,0.43-0.2,0.43-0.43v-6.11c0-0.24-0.19-0.43-0.43-0.43h-4.3c-2.42,0-3.55-1.15-3.55-3.61V31.11h7.96
		c0.24,0,0.43-0.2,0.43-0.43V24.8C291.12,24.56,290.92,24.37,290.68,24.37"/>
	<path class="st0" d="M313.3,31.94v-7.73c0-0.24-0.19-0.43-0.43-0.44c-4.72-0.16-8.36,2.12-10.63,6.59V24.8
		c0-0.24-0.2-0.43-0.43-0.43h-6.88c-0.24,0-0.43,0.19-0.43,0.43v30.95c0,0.24,0.19,0.43,0.43,0.43h6.88c0.24,0,0.43-0.19,0.43-0.43
		V44.01c0-7.67,3.77-12.07,10.35-12.07H313.3z"/>
	<path class="st0" d="M333.47,44.66c0,3.7-3.38,6.39-8.04,6.39c-3.52,0-5.8-1.74-5.8-4.44v-0.12c0-3.07,2.63-4.91,7.04-4.91
		c3.05,0,5.37,0.62,6.8,1.15V44.66z M337.4,27.53c-2.28-2.34-5.93-3.58-10.56-3.58h-9.11c-0.24,0-0.43,0.2-0.43,0.43v5.93
		c0,0.24,0.19,0.43,0.43,0.43h8.17c4.87,0,7.45,2.25,7.45,6.51v0.37c-1.99-0.61-4.51-1.19-8.1-1.19c-8.26,0-13.19,3.87-13.19,10.35
		v0.12c0,6.83,5.89,9.94,11.35,9.94c4.03,0,7.35-1.37,9.88-4.07v2.98c0,0.24,0.2,0.43,0.43,0.43h6.7c0.24,0,0.43-0.2,0.43-0.43
		V37.38C340.86,33.08,339.7,29.77,337.4,27.53"/>
	<path class="st0" d="M56.28,55.71c0,0.27-0.21,0.48-0.48,0.48H14.59c-0.27,0-0.48-0.21-0.48-0.48V25.58c0-0.15,0.07-0.28,0.18-0.37
		L34.89,8.71c0.18-0.14,0.42-0.14,0.6,0L56.1,25.21c0.11,0.09,0.18,0.23,0.18,0.37V55.71z M69.89,0H0.5C0.22,0,0,0.22,0,0.49v69.4
		c0,0.27,0.22,0.5,0.5,0.5h69.4c0.27,0,0.49-0.22,0.49-0.5V0.49C70.39,0.22,70.17,0,69.89,0"/>
	<polygon class="st0" points="50.54,26.68 49.6,25.92 48.73,26.75 32.62,42.18 25.22,33.49 24.35,32.48 23.32,33.31 18.6,37.09 
		17.35,38.09 18.54,39.17 31.4,50.84 32.42,51.76 33.34,50.73 52.08,29.77 53.04,28.69 51.92,27.79 	"/>
</g>
</svg>
